<svg xmlns="http://www.w3.org/2000/svg" viewBox="0 0 100 100">
  <defs>
    <linearGradient id="g1" x1="0" y1="0" x2="1" y2="1">
      <stop offset="0%" stop-color="#a8e063"/>
      <stop offset="50%" stop-color="#7ec8e3"/>
      <stop offset="100%" stop-color="#b8d4e3"/>
    </linearGradient>
    <linearGradient id="g2" x1="0" y1="0" x2="1" y2="1">
      <stop offset="0%" stop-color="#f5af19"/>
      <stop offset="100%" stop-color="#f093fb"/>
    </linearGradient>
    <linearGradient id="g3" x1="0" y1="0" x2="1" y2="1">
      <stop offset="0%" stop-color="#a8e063"/>
      <stop offset="100%" stop-color="#56ab2f"/>
    </linearGradient>
    <linearGradient id="g4" x1="0" y1="0" x2="1" y2="1">
      <stop offset="0%" stop-color="#f5af19"/>
      <stop offset="100%" stop-color="#f97316"/>
    </linearGradient>
  </defs>
  <!-- Left speech bubble -->
  <path d="M22 35 C22 22, 33 15, 48 15 C63 15, 72 22, 72 35 C72 48, 63 55, 48 55 C43 55, 38 54, 34 52 L24 58 L28 50 C24 46, 22 41, 22 35Z" fill="url(#g1)" opacity="0.9"/>
  <!-- Right speech bubble -->
  <path d="M38 40 C38 28, 50 22, 62 22 C74 22, 84 28, 84 40 C84 52, 74 60, 62 60 C58 60, 54 59, 50 57 L40 62 L44 55 C40 51, 38 46, 38 40Z" fill="url(#g2)" opacity="0.85"/>
  <!-- Small decorative circles -->
  <circle cx="30" cy="12" r="6" fill="url(#g3)" opacity="0.7"/>
  <circle cx="72" cy="10" r="5" fill="url(#g4)" opacity="0.7"/>
</svg>
